<svg width="24" height="12" viewBox="0 0 24 12" fill="none" xmlns="http://www.w3.org/2000/svg">
<path d="M0.749981 1.49999H23.25C23.664 1.49999 23.9999 1.16397 23.9999 0.750011C23.9999 0.335995 23.6639 3.05176e-05 23.25 3.05176e-05H0.749981C0.335964 3.05176e-05 0 0.336057 0 0.750011C0 1.16397 0.336026 1.49999 0.749981 1.49999Z" fill="#313234"/>
<path d="M23.25 5.25003H0.749981C0.335964 5.25003 0 5.58605 0 6C0 6.41395 0.336026 6.74998 0.749981 6.74998H23.25C23.664 6.74998 23.9999 6.41395 23.9999 6C23.9999 5.58605 23.664 5.25003 23.25 5.25003Z" fill="#313234"/>
<path d="M23.25 10.5H8.24998C7.83596 10.5 7.5 10.8361 7.5 11.25C7.5 11.664 7.83603 12 8.24998 12H23.25C23.664 12 23.9999 11.664 23.9999 11.25C24 10.836 23.664 10.5 23.25 10.5Z" fill="#313234"/>
</svg>
